#!OML:ASF I:\Actors\actors\Patient Classification 1\Patient 1\Session 1\Subject1.ASF
:FULLY-SPECIFIED
:DEGREES
503
root 1.58486 17.5259 9.99742 20.7005 -47.4057 -15.7609
lowerback 6.07024 -6.99876 -1.6423
upperback -7.23823 -9.49204 2.89977
thorax -10.3576 -4.39311 5.38568
lowerneck -9.85351 -12.1972 -10.4803
upperneck 18.003 -16.2289 5.20049
head 8.50593 -8.02685 1.55984
rclavicle -1.79006e-013 -9.54166e-015
rhumerus 14.382 39.0893 -37.5789
rradius 49.3205
rwrist -1.85999
rhand -19.7939 -56.7076
rfingers 7.12502
rthumb 6.5388 273.413
lclavicle -1.79006e-013 -9.54166e-015
lhumerus 75.6385 -77.6262 32.6031
lradius 92.9918
lwrist 51.042
lhand -48.9839 2.84427
lfingers 7.12502
lthumb -21.6135 31.658
rfemur -21.0773 29.3504 19.357
rtibia 10.2922
rfoot -3.45517 11.0399
rtoes 6.41179
lfemur 5.51454 -16.7583 -19.1816
ltibia -0.962818
lfoot -51.5302 56.7946
ltoes 35.6249
504
root 1.58798 17.5244 10.0053 20.3688 -47.234 -15.1989
lowerback 6.2729 -6.8601 -1.79422
upperback -7.35836 -9.30409 3.17786
thorax -10.5594 -4.26782 5.78355
lowerneck -9.86605 -12.166 -10.8205
upperneck 17.8099 -16.0553 4.99574
head 8.44129 -7.97941 1.57041
rclavicle -5.79457e-014 1.11319e-014
rhumerus 15.7511 38.4635 -37.1849
rradius 47.622
rwrist -3.58056
rhand -20.388 -56.3649
rfingers 7.12502
rthumb 5.96524 273.739
lclavicle -5.79457e-014 1.11319e-014
lhumerus 76.337 -77.3082 32.2138
lradius 93.4984
lwrist 50.6946
lhand -47.8867 2.91094
lfingers 7.12502
lthumb -20.5595 31.8422
rfemur -21.1525 29.2618 18.8367
rtibia 10.2362
rfoot -3.55744 10.8064
rtoes 6.39695
lfemur 5.34453 -16.7812 -19.5258
ltibia -0.912417
lfoot -50.952 56.756
ltoes 35.5698
505
root 1.58922 17.5217 10.0139 20.2806 -47.0568 -14.8843
lowerback 6.40718 -6.73115 -1.70954
upperback -7.48785 -9.09841 3.49857
thorax -10.7665 -4.15051 6.09096
lowerneck -9.95268 -12.1013 -11.0745
upperneck 17.6067 -15.8346 4.75476
head 8.3718 -7.90532 1.55976
rclavicle 1.04263e-013 7.95139e-016
rhumerus 15.8894 36.6836 -38.1509
rradius 46.5148
rwrist -3.17708
rhand -20.4891 -55.6802
rfingers 7.12502
rthumb 5.86765 274.421
lclavicle 1.04263e-013 7.95139e-016
lhumerus 76.7808 -76.9584 32.0181
lradius 93.9846
lwrist 50.2838
lhand -48.4315 1.87087
lfingers 7.12502
lthumb -21.083 30.7447
rfemur -21.323 29.2084 18.4788
rtibia 10.2413
rfoot -3.67458 10.6045
rtoes 6.19914
lfemur 5.13139 -16.8586 -19.6752
ltibia -0.868849
lfoot -50.639 56.7463
ltoes 35.6026
506
root 1.59045 17.5189 10.023 20.3299 -46.8229 -14.7342
lowerback 6.53545 -6.65626 -1.48924
upperback -7.60539 -8.94423 3.87155
thorax -10.9661 -4.06732 6.38762
lowerneck -10.1187 -12.0162 -11.5568
upperneck 17.4993 -15.6119 4.82695
head 8.39461 -7.81475 1.67301
rclavicle 1.63997e-014 1.03368e-014
rhumerus 15.9014 34.6977 -39.2412
rradius 45.9047
rwrist -2.03876
rhand -20.4546 -55.2423
rfingers 7.12502
rthumb 5.90092 274.86
lclavicle 1.63997e-014 1.03368e-014
lhumerus 76.4584 -76.5131 32.5323
lradius 94.5932
lwrist 50.2756
lhand -48.8063 1.00295
lfingers 7.12502
lthumb -21.443 29.8362
rfemur -21.4825 29.1912 18.255
rtibia 10.2194
rfoot -3.78623 10.3475
rtoes 5.98271
lfemur 4.90934 -17.0034 -19.6927
ltibia -0.821593
lfoot -50.5332 56.7232
ltoes 35.4964
507
root 1.59153 17.5175 10.0306 20.377 -46.6595 -14.6291
lowerback 6.30098 -6.56006 -0.608179
upperback -7.48576 -8.71907 3.70522
thorax -10.8715 -4.04111 5.65909
lowerneck -10.0868 -12.0381 -12.1968
upperneck 17.3332 -15.7332 5.84101
head 8.48471 -7.82083 2.07542
rclavicle 7.25564e-015 -3.02153e-014
rhumerus 16.1341 33.3081 -40.0576
rradius 45.2876
rwrist -1.97565
rhand -20.7419 -55.1518
rfingers 7.12502
rthumb 5.62354 274.943
lclavicle 7.25564e-015 -3.02153e-014
lhumerus 78.0855 -76.1121 30.4757
lradius 95.504
lwrist 50.5293
lhand -48.0787 2.30163
lfingers 7.12502
lthumb -20.7441 31.2129
rfemur -21.6156 29.2391 18.071
rtibia 10.2114
rfoot -3.85289 10.1109
rtoes 5.94878
lfemur 4.78995 -17.136 -19.7182
ltibia -0.863892
lfoot -50.5376 56.7147
ltoes 35.6031
508
root 1.59097 17.5187 10.0366 20.4155 -46.5148 -14.5347
lowerback 6.0576 -6.43985 0.419246
upperback -7.34976 -8.45957 3.42539
thorax -10.7896 -4.01171 4.72663
lowerneck -10.0548 -11.8677 -11.3666
upperneck 16.8381 -15.5316 5.51912
head 8.19516 -7.70346 1.90083
rclavicle 3.00165e-014 -2.38542e-015
rhumerus 16.7812 32.4617 -40.4624
rradius 44.0237
rwrist -2.40847
rhand -20.979 -54.5111
rfingers 7.12502
rthumb 5.39461 275.578
lclavicle 3.00165e-014 -2.38542e-015
lhumerus 80.0592 -75.6832 27.9164
lradius 96.5745
lwrist 50.6658
lhand -47.3733 3.39437
lfingers 7.12502
lthumb -20.0661 32.3782
rfemur -21.7611 29.3176 17.9076
rtibia 10.2677
rfoot -3.93385 9.86365
rtoes 5.99066
lfemur 4.73191 -17.1527 -19.7127
ltibia -1.01018
lfoot -50.1845 56.7426
ltoes 35.3731
